<svg width="32" height="32" viewBox="0 0 32 32" fill="none" xmlns="http://www.w3.org/2000/svg">
<path d="M26.8133 16.4483L21.8461 13.6954C21.5968 13.5558 21.4297 13.4311 21.3449 13.3214C21.2651 13.2117 21.2252 13.072 21.2252 12.9025C21.2252 12.688 21.3025 12.5035 21.4571 12.3489C21.6117 12.1943 21.7937 12.117 22.0032 12.117C22.1329 12.117 22.3324 12.1893 22.6017 12.334L30 16.4483L22.6017 20.5627C22.3324 20.7123 22.1329 20.7871 22.0032 20.7871C21.7937 20.7871 21.6117 20.7098 21.4571 20.5552C21.3025 20.4006 21.2252 20.2136 21.2252 19.9941C21.2252 19.8246 21.2651 19.6849 21.3449 19.5752C21.4297 19.4655 21.5968 19.3408 21.8461 19.2012L26.8133 16.4483Z" fill="black"/>
<path d="M19.1531 11.3166L14.2383 21.9092C14.1136 22.1735 14.0014 22.3455 13.9017 22.4253C13.772 22.5301 13.6149 22.5824 13.4304 22.5824C13.2209 22.5824 13.0389 22.5076 12.8843 22.358C12.7347 22.2084 12.6599 22.0388 12.6599 21.8493C12.6599 21.7147 12.7197 21.5177 12.8394 21.2583L17.7692 10.6733C17.8938 10.4089 18.0036 10.2369 18.0983 10.1571C18.233 10.0524 18.3901 10 18.5696 10C18.7791 10 18.9586 10.0748 19.1082 10.2244C19.2578 10.369 19.3326 10.5361 19.3326 10.7256C19.3326 10.8603 19.2728 11.0573 19.1531 11.3166Z" fill="black"/>
<path d="M5.18675 16.4483L10.1539 19.2012C10.4032 19.3408 10.5678 19.4655 10.6476 19.5752C10.7324 19.6849 10.7748 19.8246 10.7748 19.9941C10.7748 20.2086 10.6975 20.3956 10.5429 20.5552C10.3883 20.7098 10.2087 20.7871 10.0043 20.7871C9.86962 20.7871 9.66765 20.7123 9.39834 20.5627L2 16.4483L9.39834 12.334C9.66765 12.1893 9.86713 12.117 9.99679 12.117C10.2063 12.117 10.3883 12.1943 10.5429 12.3489C10.6975 12.5035 10.7748 12.688 10.7748 12.9025C10.7748 13.072 10.7324 13.2117 10.6476 13.3214C10.5678 13.4311 10.4032 13.5558 10.1539 13.6954L5.18675 16.4483Z" fill="black"/>
</svg>
