<svg xmlns="http://www.w3.org/2000/svg" fill="none" viewBox="0 0 100 100">
	<style>
			 .bg { fill: #f3f93c }
			 .fg { fill: #212121 }
		@media (prefers-color-scheme: light) {
			 .bg { fill: #212121 }
			 .fg { fill: #f3f93c }
		 }
	</style>
	<path class="bg" d="M0 0h100v100H0z"/>
	<path class="fg" d="M48.616 50.579q-.22-4.197-.875-6.367-.582-2.17-2.987-6.729-2.332-4.558-2.332-7.09 0-3.328 2.332-5.86Q47.159 22 50 22q3.133 0 5.392 2.388 2.332 2.315 2.332 6.077 0 2.967-2.26 7.163-2.258 4.196-2.914 6.44-.582 2.17-.947 6.51 4.08-1.663 5.83-2.893 1.748-1.23 5.172-4.848 4.59-4.847 8.817-4.847 3.207 0 5.392 2.098Q79 42.187 79 45.08q0 3.111-2.696 5.499t-6.995 2.387q-1.457 0-5.173-.217a92 92 0 0 0-3.79-.072q-2.696 0-8.16.29 3.133 3.544 4.882 4.92 1.749 1.301 6.048 3.472 4.299 2.17 6.193 4.63 1.385 1.81 1.385 4.631 0 3.111-2.114 5.282Q66.468 78 63.48 78q-3.133 0-5.683-2.532-2.478-2.605-3.425-9.189-.583-4.269-1.312-6.222-.655-1.954-2.914-5.716-2.405 3.835-3.206 5.933t-1.385 6.005q-.946 6.584-3.352 9.044t-5.61 2.46q-2.988 0-5.173-2.026-2.115-2.025-2.114-4.847 0-2.895 1.604-5.137 1.676-2.315 6.047-4.703 4.445-2.46 6.12-3.69 1.676-1.23 4.883-4.414l-7.797-.289q-2.04 0-3.861.072-4.3.29-5.902.29-4.154 0-6.777-2.315T21 45.224q0-2.965 2.113-5.064 2.186-2.17 5.465-2.17 4.59 0 8.817 4.34 4.225 4.342 5.464 5.282 1.749 1.23 5.757 2.967"/></svg>
