<svg width="32" height="32" viewBox="0 0 32 32" fill="none" xmlns="http://www.w3.org/2000/svg">
<path d="M24.7509 15.4864C24.3858 15.0587 24.1302 14.6467 23.9842 14.2503C23.8486 13.8435 23.7808 13.2906 23.7808 12.5917V7.49072C23.7808 7.06304 23.6973 6.76052 23.5304 6.58319C23.374 6.39542 23.0767 6.28068 22.6385 6.23895C22.2004 6.19723 21.8405 6.02511 21.5589 5.7226C21.2772 5.42009 21.1364 5.05499 21.1364 4.6273C21.1364 4.16832 21.2929 3.78236 21.6058 3.46941C21.9292 3.15647 22.336 3 22.8263 3C23.5252 3 24.198 3.18777 24.8448 3.5633C25.4915 3.9284 26.0548 4.5282 26.5347 5.36271C26.8372 5.90515 26.9884 6.53103 26.9884 7.24037V12.5917C26.9884 13.0402 27.0615 13.3532 27.2075 13.5305C27.3535 13.6974 27.6665 13.8069 28.1463 13.8591C28.6262 13.9113 28.9913 14.0782 29.2416 14.3598C29.5024 14.6415 29.6328 15.017 29.6328 15.4864C29.6328 15.9454 29.5024 16.3157 29.2416 16.5973C28.9913 16.879 28.621 17.0511 28.1307 17.1137C27.6508 17.1659 27.3588 17.2597 27.2544 17.3953C27.0771 17.604 26.9884 17.9274 26.9884 18.3655V24.0141C26.9884 25.172 26.5712 26.1682 25.7367 27.0027C24.9022 27.8476 23.9372 28.2701 22.8419 28.2701C22.3412 28.2701 21.9292 28.1136 21.6058 27.8007C21.2929 27.4877 21.1364 27.1018 21.1364 26.6428C21.1364 26.2151 21.2772 25.85 21.5589 25.5475C21.8405 25.245 22.2056 25.0729 22.6542 25.0311C23.1027 24.9894 23.3844 24.8955 23.4991 24.7495C23.6869 24.5304 23.7808 24.2071 23.7808 23.7794V18.6784C23.7808 17.7813 23.8434 17.1346 23.9685 16.7382C24.1042 16.3418 24.3649 15.9245 24.7509 15.4864Z" fill="black"/>
<path d="M6.8819 15.4864C7.25743 15.9141 7.513 16.3313 7.64861 16.7382C7.78422 17.1346 7.85202 17.7813 7.85202 18.6784V23.7794C7.85202 24.2071 7.93026 24.5096 8.08673 24.6869C8.25363 24.8747 8.55614 24.9842 8.99426 25.0155C9.43238 25.0572 9.79227 25.2293 10.0739 25.5319C10.3556 25.8344 10.4964 26.2047 10.4964 26.6428C10.4964 27.1018 10.3347 27.4877 10.0113 27.8007C9.69838 28.1136 9.29677 28.2701 8.8065 28.2701C8.10759 28.2701 7.43477 28.0823 6.78802 27.7068C6.14127 27.3417 5.57797 26.7419 5.09813 25.9074C4.79562 25.3649 4.64436 24.7338 4.64436 24.0141V18.3655C4.64436 17.9169 4.57134 17.6092 4.4253 17.4423C4.27926 17.2754 3.96632 17.1659 3.48648 17.1137C3.00663 17.0511 2.63632 16.879 2.37553 16.5973C2.12518 16.3157 2 15.9454 2 15.4864C2 15.017 2.12518 14.6415 2.37553 14.3598C2.63632 14.0782 3.00663 13.9113 3.48648 13.8591C3.97675 13.7965 4.27405 13.6974 4.37836 13.5618C4.5557 13.3532 4.64436 13.0298 4.64436 12.5917V7.24037C4.64436 6.09291 5.06162 5.10193 5.89613 4.26742C6.73065 3.42247 7.69555 3 8.79085 3C9.29156 3 9.69838 3.15647 10.0113 3.46941C10.3347 3.78236 10.4964 4.16832 10.4964 4.6273C10.4964 5.05499 10.3556 5.42009 10.0739 5.7226C9.79227 6.02511 9.42717 6.19723 8.97862 6.23895C8.53006 6.28068 8.24842 6.37456 8.13367 6.5206C7.94591 6.73966 7.85202 7.06304 7.85202 7.49072V12.5917C7.85202 13.3115 7.779 13.8695 7.63296 14.2659C7.49735 14.6519 7.247 15.0587 6.8819 15.4864Z" fill="black"/>
</svg>
