<svg width="35" height="113" viewBox="0 0 35 113" fill="none" xmlns="http://www.w3.org/2000/svg">
<path d="M35 0.3125V3.125C30.8333 3.91667 27.75 5.39583 25.75 7.5625C23.7917 9.6875 22.8125 12.125 22.8125 14.875C22.8125 17.6667 23.3125 21.1458 24.3125 25.3125C25.3125 29.4375 25.8125 33.0417 25.8125 36.125C25.8125 38.9583 24.9583 41.8542 23.25 44.8125C21.5833 47.7292 19.1667 50.2292 16 52.3125C13.7917 53.7708 10.2708 55.1458 5.4375 56.4375C10.6042 58.0625 14.3542 59.6667 16.6875 61.25C19.7708 63.375 22.0833 65.875 23.625 68.75C25.1667 71.625 25.9375 74.3542 25.9375 76.9375C25.9375 79.4375 25.4167 82.7708 24.375 86.9375C23.375 91.1042 22.875 94.7292 22.875 97.8125C22.875 100.771 23.8125 103.312 25.6875 105.438C27.6042 107.604 30.7083 109.104 35 109.938V112.875H32.8125C28.5625 112.917 24.5208 111.938 20.6875 109.938C16.8958 107.938 14.0208 105.354 12.0625 102.188C10.1458 99.0625 9.1875 96.0208 9.1875 93.0625C9.1875 90.1875 9.83333 86.25 11.125 81.25C12.0833 77.5417 12.5625 74.2292 12.5625 71.3125C12.5625 68.0208 11.5208 65.2292 9.4375 62.9375C7.35417 60.6042 4.3125 59.1042 0.3125 58.4375V54.625C4.3125 53.9583 7.35417 52.4167 9.4375 50C11.5208 47.5833 12.5625 44.6458 12.5625 41.1875C12.5625 38.3542 12.1042 35.1667 11.1875 31.625C9.89583 26.6667 9.25 22.8958 9.25 20.3125C9.25 17.6042 10.0625 14.8542 11.6875 12.0625C13.3125 9.27083 15.3542 7 17.8125 5.25C20.2708 3.5 22.9583 2.22917 25.875 1.4375C28.125 0.8125 31.1667 0.4375 35 0.3125Z" fill="black"/>
</svg>
