<svg xmlns="http://www.w3.org/2000/svg">
	<symbol id="curly" width="12" height="40" viewBox="0 0 12 40" fill="none">
		<path d="M12 39.2489V40C9.60573 39.671 7.65591 38.6981 6.15054 37.0815C4.6595 35.4793 3.91398 33.6981 3.91398 31.7382C3.91398 30.7082 4.07885 29.5136 4.4086 28.1545C4.73835 26.7811 4.90323 25.7153 4.90323 24.9571C4.90323 23.927 4.46595 22.9685 3.5914 22.0815C2.73118 21.1803 1.53405 20.6295 0 20.4292V19.5494C1.53405 19.3491 2.73118 18.8054 3.5914 17.9185C4.46595 17.0315 4.90323 16.0658 4.90323 15.0215C4.90323 14.2632 4.73835 13.2046 4.4086 11.8455C4.07885 10.4864 3.91398 9.28469 3.91398 8.24034C3.91398 6.29471 4.6595 4.51359 6.15054 2.897C7.65591 1.2804 9.60573 0.314735 12 0V0.751073C10.3226 1.15165 9.08961 1.80973 8.30108 2.72532C7.52688 3.62661 7.13978 4.62089 7.13978 5.70815C7.13978 6.55222 7.29749 7.6681 7.6129 9.05579C7.94265 10.4292 8.10753 11.6023 8.10753 12.5751C8.10753 14.02 7.57706 15.422 6.51613 16.7811C5.4552 18.1402 3.87097 19.1917 1.76344 19.9356C3.82796 20.6938 5.39785 21.7668 6.47312 23.1545C7.56272 24.5422 8.10753 25.9585 8.10753 27.4034C8.10753 28.3763 7.94265 29.5494 7.6129 30.9227C7.29749 32.3104 7.13978 33.4263 7.13978 34.2704C7.13978 35.3577 7.52688 36.3519 8.30108 37.2532C9.08961 38.1688 10.3226 38.834 12 39.2489Z" fill="black"/>
	</symbol>

	<symbol id="star" width="32" height="31" viewBox="0 0 32 31" fill="none" xmlns="http://www.w3.org/2000/svg">
		<path d="M15.2362 15.8204C15.1558 14.2717 14.995 13.0969 14.7538 12.2959C14.5394 11.4948 13.9899 10.2532 13.1055 8.57106C12.2479 6.88889 11.8191 5.58053 11.8191 4.64599C11.8191 3.41774 12.2479 2.33635 13.1055 1.40181C13.9899 0.46727 14.9548 0 16 0C17.1524 0 18.1441 0.440568 18.9749 1.32171C19.8325 2.17614 20.2613 3.29759 20.2613 4.68605C20.2613 5.78079 19.8459 7.1025 19.0151 8.65116C18.1843 10.1998 17.6482 11.388 17.407 12.2158C17.1926 13.0168 17.0184 14.2183 16.8844 15.8204C18.3853 15.2063 19.4573 14.6723 20.1005 14.2183C20.7437 13.7644 21.6951 12.8699 22.9548 11.5349C24.6432 9.74591 26.2647 8.85142 27.8191 8.85142C28.9983 8.85142 29.9899 9.23859 30.794 10.0129C31.598 10.7873 32 11.7084 32 12.7765C32 13.9246 31.5042 14.9393 30.5126 15.8204C29.5209 16.7015 28.2345 17.1421 26.6533 17.1421C26.1173 17.1421 25.1658 17.1021 23.799 17.022C23.1558 16.9953 22.459 16.9819 21.7085 16.9819C20.7169 16.9819 19.2161 17.0353 17.206 17.1421C18.3585 18.4505 19.2563 19.3583 19.8995 19.8656C20.5427 20.3463 21.6549 20.9871 23.2362 21.7881C24.8174 22.5891 25.9564 23.4436 26.6533 24.3514C27.1625 25.0189 27.4171 25.8734 27.4171 26.9147C27.4171 28.0629 27.0285 29.0375 26.2513 29.8385C25.474 30.6128 24.536 31 23.4372 31C22.2848 31 21.2395 30.5327 20.3015 29.5982C19.3903 28.6369 18.7605 26.9414 18.4121 24.5116C18.1977 22.9363 17.9564 21.7881 17.6884 21.0672C17.4472 20.3463 16.9112 19.2916 16.0804 17.9031C15.196 19.3183 14.6064 20.413 14.3116 21.1873C14.0168 21.9617 13.7621 23.0698 13.5477 24.5116C13.1993 26.9414 12.5829 28.6102 11.6985 29.5181C10.8141 30.4259 9.78224 30.8798 8.60301 30.8798C7.50419 30.8798 6.55276 30.506 5.74874 29.7584C4.97152 29.0108 4.58291 28.1163 4.58291 27.0749C4.58291 26.0069 4.87772 25.059 5.46734 24.2313C6.08375 23.3768 7.19598 22.509 8.80402 21.6279C10.4389 20.7201 11.5645 20.0392 12.1809 19.5853C12.7973 19.1314 13.6951 18.317 14.8744 17.1421L10.5729 16.9819C9.82245 16.9819 9.11223 16.9953 8.44221 17.022C6.86097 17.1288 5.77554 17.1822 5.18593 17.1822C3.65829 17.1822 2.41206 16.755 1.44724 15.9005C0.482412 15.0461 0 14.0314 0 12.8566C0 11.7618 0.38861 10.8273 1.16583 10.053C1.96985 9.25194 2.97487 8.85142 4.1809 8.85142C5.86935 8.85142 7.49079 9.65245 9.04523 11.2545C10.5997 12.8566 11.6047 13.8312 12.0603 14.1783C12.7035 14.6322 13.7621 15.1796 15.2362 15.8204Z" fill="black"/>
	</symbol>

</svg>
